<svg width="17" height="26" viewBox="0 0 17 26" fill="none" xmlns="http://www.w3.org/2000/svg">
<g clip-path="url(#clip0_10_196)">
<path d="M8.5 13C8.5 10.6066 10.4027 8.66667 12.75 8.66667C15.0973 8.66667 17 10.6066 17 13C17 15.3934 15.0973 17.3333 12.75 17.3333C10.4027 17.3333 8.5 15.3934 8.5 13Z" fill="#1ABCFE"/>
<path d="M0 21.6667C0 19.2733 1.90266 17.3333 4.25 17.3333H8.5V21.6667C8.5 24.06 6.59734 26 4.25 26C1.90266 26 0 24.06 0 21.6667Z" fill="#0ACF83"/>
<path d="M8.5 0V8.66667H12.75C15.0973 8.66667 17 6.7267 17 4.33333C17 1.93996 15.0973 0 12.75 0H8.5Z" fill="#FF7262"/>
<path d="M0 4.33333C0 6.7267 1.90266 8.66667 4.25 8.66667H8.5V0H4.25C1.90266 0 0 1.93996 0 4.33333Z" fill="#F24E1E"/>
<path d="M0 13C0 15.3934 1.90266 17.3333 4.25 17.3333H8.5V8.66667H4.25C1.90266 8.66667 0 10.6066 0 13Z" fill="#A259FF"/>
</g>
<defs>
<clipPath id="clip0_10_196">
<rect width="17" height="26" fill="white"/>
</clipPath>
</defs>
</svg>
