<svg width="46" height="46" viewBox="0 0 46 46" fill="none" xmlns="http://www.w3.org/2000/svg">
<path d="M37.375 2.33594C37.8797 2.33599 38.3799 2.43653 38.8457 2.63086C39.3089 2.82422 39.7301 3.10689 40.084 3.46289L42.5381 5.91602H42.5371C42.8941 6.2672 43.1792 6.68597 43.374 7.14746C43.5712 7.61488 43.6728 8.11768 43.6729 8.625C43.6728 9.13256 43.5714 9.63592 43.374 10.1035C43.1793 10.5647 42.8939 10.982 42.5371 11.333L42.5381 11.334L11.334 42.5381C10.9829 42.8949 10.5647 43.1793 10.1035 43.374C9.63588 43.5715 9.1326 43.6728 8.625 43.6729C8.11766 43.6728 7.61489 43.5713 7.14746 43.374C6.68597 43.1792 6.2672 42.8941 5.91602 42.5371L3.46289 40.084L3.46387 40.083C3.10788 39.7292 2.82422 39.3089 2.63086 38.8457C2.43654 38.38 2.336 37.8797 2.33594 37.375C2.33598 36.8704 2.43658 36.37 2.63086 35.9043C2.82436 35.4407 3.10751 35.02 3.46387 34.666L34.666 3.46289V3.46387C35.02 3.10748 35.4407 2.82437 35.9043 2.63086C36.3701 2.43654 36.8703 2.33598 37.375 2.33594ZM5.5791 36.793C5.50227 36.869 5.4411 36.9598 5.39941 37.0596C5.35784 37.1593 5.33598 37.2669 5.33594 37.375C5.336 37.4831 5.35783 37.5907 5.39941 37.6904C5.43065 37.7651 5.47297 37.8353 5.52441 37.8975L5.5791 37.958L5.58398 37.9629L8.03809 40.416L8.05176 40.4307C8.12622 40.5071 8.21617 40.5689 8.31445 40.6104C8.41258 40.6516 8.51854 40.6728 8.625 40.6729C8.73172 40.6728 8.8382 40.6518 8.93652 40.6104C9.03486 40.5688 9.12376 40.5072 9.19824 40.4307L30.4619 19.167L26.833 15.5381L5.5791 36.793ZM36.417 25.334C37.2453 25.3341 37.917 26.0057 37.917 26.834V29.167H40.25C41.0783 29.1672 41.75 29.8387 41.75 30.667C41.7497 31.4951 41.0781 32.1668 40.25 32.167H37.917V34.501C37.9166 35.3289 37.245 36.0008 36.417 36.001C35.5888 36.001 34.9174 35.329 34.917 34.501V32.167H32.583C31.7549 32.1668 31.0833 31.4951 31.083 30.667C31.083 29.8387 31.7547 29.1672 32.583 29.167H34.917V26.834C34.917 26.0056 35.5886 25.334 36.417 25.334ZM9.58301 10C10.4114 10 11.083 10.6716 11.083 11.5V13.834H13.417C14.2453 13.8342 14.917 14.5057 14.917 15.334C14.9167 16.1621 14.2451 16.8338 13.417 16.834H11.083V19.167C11.0828 19.9953 10.4113 20.667 9.58301 20.667C8.75483 20.6668 8.08318 19.9952 8.08301 19.167V16.834H5.75C4.92174 16.834 4.25026 16.1622 4.25 15.334C4.25 14.5056 4.92157 13.834 5.75 13.834H8.08301V11.5C8.08301 10.6717 8.75472 10.0002 9.58301 10ZM37.375 5.33594C37.2669 5.33598 37.1594 5.3578 37.0596 5.39941C36.9598 5.44111 36.869 5.50225 36.793 5.5791L28.9541 13.417L32.583 17.0459L40.4307 9.19824C40.5072 9.12378 40.5688 9.03483 40.6104 8.93652C40.6518 8.83824 40.6728 8.73168 40.6729 8.625C40.6728 8.51856 40.6516 8.41256 40.6104 8.31445C40.5689 8.21617 40.5071 8.12623 40.4307 8.05176C40.426 8.04724 40.4206 8.04264 40.416 8.03809L37.9629 5.58398L37.958 5.5791C37.882 5.50227 37.7902 5.44111 37.6904 5.39941C37.5907 5.35782 37.4831 5.33599 37.375 5.33594ZM19.167 2.33301C19.9953 2.33317 20.667 3.00566 20.667 3.83398V4.25H21.083C21.9114 4.25 22.583 4.92157 22.583 5.75C22.583 6.57843 21.9114 7.25 21.083 7.25H20.667V7.66699C20.6667 8.49509 19.9951 9.16683 19.167 9.16699C18.3387 9.16699 17.6673 8.49519 17.667 7.66699V7.25H17.25C16.4216 7.25 15.75 6.57843 15.75 5.75C15.75 4.92157 16.4216 4.25 17.25 4.25H17.667V3.83398C17.667 3.00556 18.3386 2.33301 19.167 2.33301Z" fill="#424BFF"/>
<path d="M37.375 2.33594C37.8797 2.33599 38.3799 2.43653 38.8457 2.63086C39.3089 2.82422 39.7301 3.10689 40.084 3.46289L42.5381 5.91602H42.5371C42.8941 6.2672 43.1792 6.68597 43.374 7.14746C43.5712 7.61488 43.6728 8.11768 43.6729 8.625C43.6728 9.13256 43.5714 9.63592 43.374 10.1035C43.1793 10.5647 42.8939 10.982 42.5371 11.333L42.5381 11.334L11.334 42.5381C10.9829 42.8949 10.5647 43.1793 10.1035 43.374C9.63588 43.5715 9.1326 43.6728 8.625 43.6729C8.11766 43.6728 7.61489 43.5713 7.14746 43.374C6.68597 43.1792 6.2672 42.8941 5.91602 42.5371L3.46289 40.084L3.46387 40.083C3.10788 39.7292 2.82422 39.3089 2.63086 38.8457C2.43654 38.38 2.336 37.8797 2.33594 37.375C2.33598 36.8704 2.43658 36.37 2.63086 35.9043C2.82436 35.4407 3.10751 35.02 3.46387 34.666L34.666 3.46289V3.46387C35.02 3.10748 35.4407 2.82437 35.9043 2.63086C36.3701 2.43654 36.8703 2.33598 37.375 2.33594ZM5.5791 36.793C5.50227 36.869 5.4411 36.9598 5.39941 37.0596C5.35784 37.1593 5.33598 37.2669 5.33594 37.375C5.336 37.4831 5.35783 37.5907 5.39941 37.6904C5.43065 37.7651 5.47297 37.8353 5.52441 37.8975L5.5791 37.958L5.58398 37.9629L8.03809 40.416L8.05176 40.4307C8.12622 40.5071 8.21617 40.5689 8.31445 40.6104C8.41258 40.6516 8.51854 40.6728 8.625 40.6729C8.73172 40.6728 8.8382 40.6518 8.93652 40.6104C9.03486 40.5688 9.12376 40.5072 9.19824 40.4307L30.4619 19.167L26.833 15.5381L5.5791 36.793ZM36.417 25.334C37.2453 25.3341 37.917 26.0057 37.917 26.834V29.167H40.25C41.0783 29.1672 41.75 29.8387 41.75 30.667C41.7497 31.4951 41.0781 32.1668 40.25 32.167H37.917V34.501C37.9166 35.3289 37.245 36.0008 36.417 36.001C35.5888 36.001 34.9174 35.329 34.917 34.501V32.167H32.583C31.7549 32.1668 31.0833 31.4951 31.083 30.667C31.083 29.8387 31.7547 29.1672 32.583 29.167H34.917V26.834C34.917 26.0056 35.5886 25.334 36.417 25.334ZM9.58301 10C10.4114 10 11.083 10.6716 11.083 11.5V13.834H13.417C14.2453 13.8342 14.917 14.5057 14.917 15.334C14.9167 16.1621 14.2451 16.8338 13.417 16.834H11.083V19.167C11.0828 19.9953 10.4113 20.667 9.58301 20.667C8.75483 20.6668 8.08318 19.9952 8.08301 19.167V16.834H5.75C4.92174 16.834 4.25026 16.1622 4.25 15.334C4.25 14.5056 4.92157 13.834 5.75 13.834H8.08301V11.5C8.08301 10.6717 8.75472 10.0002 9.58301 10ZM37.375 5.33594C37.2669 5.33598 37.1594 5.3578 37.0596 5.39941C36.9598 5.44111 36.869 5.50225 36.793 5.5791L28.9541 13.417L32.583 17.0459L40.4307 9.19824C40.5072 9.12378 40.5688 9.03483 40.6104 8.93652C40.6518 8.83824 40.6728 8.73168 40.6729 8.625C40.6728 8.51856 40.6516 8.41256 40.6104 8.31445C40.5689 8.21617 40.5071 8.12623 40.4307 8.05176C40.426 8.04724 40.4206 8.04264 40.416 8.03809L37.9629 5.58398L37.958 5.5791C37.882 5.50227 37.7902 5.44111 37.6904 5.39941C37.5907 5.35782 37.4831 5.33599 37.375 5.33594ZM19.167 2.33301C19.9953 2.33317 20.667 3.00566 20.667 3.83398V4.25H21.083C21.9114 4.25 22.583 4.92157 22.583 5.75C22.583 6.57843 21.9114 7.25 21.083 7.25H20.667V7.66699C20.6667 8.49509 19.9951 9.16683 19.167 9.16699C18.3387 9.16699 17.6673 8.49519 17.667 7.66699V7.25H17.25C16.4216 7.25 15.75 6.57843 15.75 5.75C15.75 4.92157 16.4216 4.25 17.25 4.25H17.667V3.83398C17.667 3.00556 18.3386 2.33301 19.167 2.33301Z" fill="url(#paint0_linear_51_199)"/>
<defs>
<linearGradient id="paint0_linear_51_199" x1="7.79992" y1="4.00929" x2="41.0318" y2="28.1395" gradientUnits="userSpaceOnUse">
<stop stop-color="#D7D3FF"/>
<stop offset="0.480769" stop-color="#7BA7FF"/>
<stop offset="1" stop-color="#414AFF"/>
</linearGradient>
</defs>
</svg>
