<svg width="20" height="20" viewBox="0 0 20 20" fill="none" xmlns="http://www.w3.org/2000/svg">
<path d="M12.5 4.9L11.6666 8.33333H16.525C16.7837 8.33333 17.0389 8.39358 17.2703 8.50929C17.5017 8.625 17.703 8.79301 17.8583 9C18.0135 9.20699 18.1185 9.44729 18.1647 9.70186C18.211 9.95643 18.1974 10.2183 18.125 10.4667L16.1833 17.1333C16.0823 17.4795 15.8718 17.7836 15.5833 18C15.2948 18.2164 14.9439 18.3333 14.5833 18.3333H3.33329C2.89127 18.3333 2.46734 18.1577 2.15478 17.8452C1.84222 17.5326 1.66663 17.1087 1.66663 16.6667V10C1.66663 9.55797 1.84222 9.13405 2.15478 8.82149C2.46734 8.50893 2.89127 8.33333 3.33329 8.33333H5.63329C5.94336 8.33317 6.24724 8.24651 6.51076 8.0831C6.77427 7.91969 6.98698 7.68601 7.12496 7.40833L9.99996 1.66667C10.3929 1.67153 10.7797 1.76514 11.1315 1.9405C11.4832 2.11585 11.7907 2.36842 12.0311 2.67934C12.2715 2.99025 12.4386 3.35147 12.5197 3.736C12.6009 4.12054 12.5942 4.51845 12.5 4.9Z" stroke="black" stroke-linecap="round" stroke-linejoin="round"/>
<path d="M5.83337 8.33333V18.3333" stroke="black" stroke-linecap="round" stroke-linejoin="round"/>
</svg>
