<svg width="220" height="73" viewBox="0 0 220 73" fill="none" xmlns="http://www.w3.org/2000/svg">
<path fill-rule="evenodd" clip-rule="evenodd" d="M59.4443 16.46C63.2607 16.4601 66.6487 17.3187 69.6064 19.0361C72.5641 20.7059 74.8781 23.0443 76.5479 26.0498C78.2652 29.0076 79.124 32.4426 79.124 36.3545V51.8125C79.124 55.5814 78.2888 58.9926 76.6191 62.0459C74.9495 65.1468 72.6118 67.6041 69.6064 69.417C66.6486 71.2299 63.2128 72.1367 59.3008 72.1367C55.9135 72.1367 52.7401 71.4686 49.7822 70.1328C46.8245 68.797 44.3199 66.8407 42.2686 64.2646C41.6483 63.4536 41.4096 62.6185 41.5527 61.7598C41.7436 60.9011 42.2211 60.2093 42.9844 59.6846C43.8429 59.1124 44.7256 58.9215 45.6318 59.1123C46.5857 59.3032 47.3495 59.7799 47.9219 60.543C49.2099 62.1649 50.8323 63.4295 52.7881 64.3359C54.7441 65.2423 56.9636 65.6963 59.4443 65.6963C61.734 65.6962 63.8331 65.1469 65.7412 64.0498C67.6971 62.9525 69.2486 61.3304 70.3936 59.1836C71.5385 57.0367 72.1104 54.4125 72.1104 51.3115V47.7578C70.7393 50.202 68.9501 52.1737 66.7432 53.6729C64.2147 55.3426 61.3044 56.1776 58.0127 56.1777C54.4346 56.1777 51.2612 55.3426 48.4941 53.6729C45.775 51.9554 43.628 49.6178 42.0537 46.6602C40.4793 43.6544 39.6924 40.219 39.6924 36.3545C39.6924 32.4424 40.5275 29.0077 42.1973 26.0498C43.9148 23.0443 46.2521 20.7059 49.21 19.0361C52.1679 17.3187 55.58 16.46 59.4443 16.46ZM126.043 0C127.092 0.000192343 127.927 0.334273 128.547 1.00195C129.215 1.62216 129.549 2.45735 129.549 3.50684V32.625L146.939 17.1035C147.655 16.4359 148.442 16.1262 149.301 16.1738C150.207 16.2216 150.971 16.6029 151.591 17.3184C152.258 18.0338 152.569 18.8212 152.521 19.6797C152.474 20.5384 152.091 21.3018 151.376 21.9697L138.241 33.6924L152.092 50.7393C152.712 51.5025 152.974 52.3378 152.879 53.2441C152.831 54.1027 152.402 54.8664 151.591 55.5342C150.828 56.1542 149.969 56.4166 149.015 56.3213C148.108 56.2736 147.345 55.8677 146.725 55.1045L133.111 38.2715L129.549 41.4512V52.3848C129.549 53.4342 129.215 54.293 128.547 54.9609C127.927 55.581 127.092 55.8914 126.043 55.8916C124.993 55.8916 124.134 55.581 123.466 54.9609C122.846 54.2931 122.536 53.4342 122.536 52.3848V3.50684C122.536 2.45738 122.846 1.62215 123.466 1.00195C124.134 0.334168 124.993 0 126.043 0ZM33.0625 16.6748C34.1595 16.6749 35.0422 17.0089 35.71 17.6768C36.3777 18.3447 36.7119 19.2271 36.7119 20.3242V52.2422C36.7119 53.2916 36.3777 54.1741 35.71 54.8896C35.0422 55.5574 34.1595 55.8915 33.0625 55.8916C32.013 55.8916 31.1297 55.5574 30.4141 54.8896C29.7464 54.1741 29.4122 53.2916 29.4121 52.2422V51.459C28.3588 52.5128 27.1429 53.4186 25.7627 54.1738C23.2819 55.5573 20.4425 56.2499 17.2461 56.25C13.9546 56.2499 10.9968 55.5571 8.37305 54.1738C5.79679 52.7426 3.74447 50.6676 2.21777 47.9482C0.738774 45.2288 0 41.8886 0 37.9287V20.3242C0 19.2748 0.333255 18.4159 1.00098 17.748C1.71658 17.0326 2.59991 16.6748 3.64941 16.6748C4.69878 16.6749 5.55777 17.0325 6.22559 17.748C6.94102 18.4159 7.29883 19.2748 7.29883 20.3242V37.9287C7.29883 40.6005 7.79986 42.8197 8.80176 44.585C9.80361 46.3022 11.1635 47.5905 12.8809 48.4492C14.5983 49.2602 16.531 49.666 18.6777 49.666C20.7291 49.666 22.5429 49.2602 24.1172 48.4492C25.739 47.6382 27.0274 46.5406 27.9814 45.1572C28.9355 43.7737 29.4121 42.2223 29.4121 40.5049V20.3242C29.4121 19.2271 29.7464 18.3446 30.4141 17.6768C31.1297 17.009 32.013 16.6748 33.0625 16.6748ZM201.406 16.6748C202.503 16.6749 203.387 17.0089 204.055 17.6768C204.722 18.3446 205.057 19.2272 205.057 20.3242V52.2422C205.057 53.2915 204.722 54.1741 204.055 54.8896C203.387 55.5575 202.503 55.8915 201.406 55.8916C200.357 55.8915 199.474 55.5574 198.759 54.8896C198.091 54.1741 197.757 53.2917 197.757 52.2422V51.459C196.704 52.5128 195.488 53.4185 194.107 54.1738C191.627 55.5573 188.787 56.2499 185.591 56.25C182.299 56.25 179.341 55.5573 176.717 54.1738C174.141 52.7426 172.089 50.6674 170.562 47.9482C169.083 45.2288 168.344 41.8886 168.344 37.9287V20.3242C168.344 19.2747 168.678 18.416 169.346 17.748C170.061 17.0327 170.944 16.6749 171.993 16.6748C173.043 16.6749 173.902 17.0325 174.57 17.748C175.286 18.4159 175.644 19.2749 175.644 20.3242V37.9287C175.644 40.6005 176.145 42.8197 177.146 44.585C178.148 46.3022 179.508 47.5905 181.226 48.4492C182.943 49.2601 184.876 49.666 187.022 49.666C189.074 49.6659 190.887 49.2601 192.461 48.4492C194.083 47.6382 195.371 46.5406 196.325 45.1572C197.279 43.7737 197.757 42.2223 197.757 40.5049V20.3242C197.757 19.227 198.091 18.3447 198.759 17.6768C199.474 17.0091 200.357 16.6749 201.406 16.6748ZM99.8643 16.46C103.681 16.4601 107.069 17.3187 110.026 19.0361C112.984 20.7059 115.298 23.0443 116.968 26.0498C118.685 29.0076 119.544 32.4426 119.544 36.3545C119.544 40.2189 118.709 43.6545 117.039 46.6602C115.369 49.6178 113.055 51.9554 110.098 53.6729C107.14 55.3426 103.728 56.1776 99.8643 56.1777C95.9999 56.1777 92.5878 55.3426 89.6299 53.6729C86.6722 51.9554 84.3346 49.6178 82.6172 46.6602C80.9473 43.6544 80.1123 40.219 80.1123 36.3545C80.1123 32.4424 80.9474 29.0077 82.6172 26.0498C84.3347 23.0443 86.6721 20.7059 89.6299 19.0361C92.5878 17.3187 95.9999 16.46 99.8643 16.46ZM159.773 16.7461C160.87 16.7462 161.753 17.0803 162.421 17.748C163.089 18.4159 163.423 19.2984 163.423 20.3955V52.2422C163.423 53.2916 163.089 54.1741 162.421 54.8896C161.753 55.5574 160.87 55.8915 159.773 55.8916C158.724 55.8916 157.842 55.5573 157.126 54.8896C156.458 54.1741 156.124 53.2917 156.124 52.2422V20.3955C156.124 19.2983 156.458 18.4159 157.126 17.748C157.842 17.0803 158.724 16.7461 159.773 16.7461ZM214.405 16.7461C215.502 16.7462 216.386 17.0802 217.054 17.748C217.721 18.4159 218.056 19.2985 218.056 20.3955V52.2422C218.056 53.2915 217.721 54.1741 217.054 54.8896C216.386 55.5575 215.502 55.8915 214.405 55.8916C213.356 55.8915 212.473 55.5574 211.758 54.8896C211.09 54.1741 210.756 53.2917 210.756 52.2422V20.3955C210.756 19.2983 211.09 18.4159 211.758 17.748C212.473 17.0803 213.356 16.7462 214.405 16.7461ZM59.4443 22.9004C56.9637 22.9004 54.7686 23.4734 52.8604 24.6182C50.952 25.7632 49.4489 27.3617 48.3516 29.4131C47.2543 31.4168 46.7051 33.7306 46.7051 36.3545C46.7051 38.9784 47.2544 41.2922 48.3516 43.2959C49.4489 45.2996 50.952 46.8745 52.8604 48.0195C54.7686 49.1643 56.9637 49.7373 59.4443 49.7373C61.9249 49.7372 64.1202 49.1644 66.0283 48.0195C67.9364 46.8745 69.4154 45.2994 70.4648 43.2959C71.562 41.2922 72.1104 38.9783 72.1104 36.3545C72.1103 33.7307 71.562 31.4168 70.4648 29.4131C69.4154 27.3618 67.9364 25.7632 66.0283 24.6182C64.1202 23.4733 61.9249 22.9005 59.4443 22.9004ZM99.8643 22.9004C97.3836 22.9004 95.1885 23.4733 93.2803 24.6182C91.3719 25.7632 89.8688 27.3617 88.7715 29.4131C87.6742 31.4168 87.125 33.7306 87.125 36.3545C87.125 38.9784 87.6743 41.2922 88.7715 43.2959C89.8688 45.2996 91.3719 46.8745 93.2803 48.0195C95.1885 49.1644 97.3836 49.7373 99.8643 49.7373C102.345 49.7372 104.54 49.1644 106.448 48.0195C108.356 46.8745 109.835 45.2995 110.885 43.2959C111.982 41.2922 112.531 38.9783 112.531 36.3545C112.531 33.7307 111.982 31.4168 110.885 29.4131C109.835 27.3618 108.356 25.7632 106.448 24.6182C104.54 23.4733 102.345 22.9005 99.8643 22.9004ZM106.344 2.93359C108.518 2.93359 110.28 4.6963 110.28 6.87012C110.28 9.04387 108.518 10.8057 106.344 10.8057H92.0312C89.8575 10.8057 88.0948 9.04387 88.0947 6.87012C88.0947 4.6963 89.8574 2.93359 92.0312 2.93359H106.344ZM159.773 0.930664C161.061 0.930777 162.159 1.40729 163.065 2.36133C164.019 3.26774 164.497 4.36532 164.497 5.65332C164.497 6.94129 164.019 8.0625 163.065 9.0166C162.159 9.92298 161.061 10.3768 159.773 10.377C158.485 10.377 157.364 9.92294 156.41 9.0166C155.504 8.06242 155.05 6.94145 155.05 5.65332C155.05 4.36522 155.504 3.26778 156.41 2.36133C157.364 1.40743 158.485 0.930664 159.773 0.930664ZM214.405 0.930664C215.693 0.930775 216.791 1.40742 217.697 2.36133C218.651 3.26774 219.129 4.36532 219.129 5.65332C219.129 6.94137 218.651 8.06246 217.697 9.0166C216.791 9.92298 215.693 10.3768 214.405 10.377C213.117 10.3769 211.996 9.92284 211.042 9.0166C210.136 8.06247 209.683 6.94136 209.683 5.65332C209.683 4.36522 210.136 3.26778 211.042 2.36133C211.996 1.40739 213.117 0.93076 214.405 0.930664Z" fill="#424BFF"/>
<path fill-rule="evenodd" clip-rule="evenodd" d="M59.4443 16.46C63.2607 16.4601 66.6487 17.3187 69.6064 19.0361C72.5641 20.7059 74.8781 23.0443 76.5479 26.0498C78.2652 29.0076 79.124 32.4426 79.124 36.3545V51.8125C79.124 55.5814 78.2888 58.9926 76.6191 62.0459C74.9495 65.1468 72.6118 67.6041 69.6064 69.417C66.6486 71.2299 63.2128 72.1367 59.3008 72.1367C55.9135 72.1367 52.7401 71.4686 49.7822 70.1328C46.8245 68.797 44.3199 66.8407 42.2686 64.2646C41.6483 63.4536 41.4096 62.6185 41.5527 61.7598C41.7436 60.9011 42.2211 60.2093 42.9844 59.6846C43.8429 59.1124 44.7256 58.9215 45.6318 59.1123C46.5857 59.3032 47.3495 59.7799 47.9219 60.543C49.2099 62.1649 50.8323 63.4295 52.7881 64.3359C54.7441 65.2423 56.9636 65.6963 59.4443 65.6963C61.734 65.6962 63.8331 65.1469 65.7412 64.0498C67.6971 62.9525 69.2486 61.3304 70.3936 59.1836C71.5385 57.0367 72.1104 54.4125 72.1104 51.3115V47.7578C70.7393 50.202 68.9501 52.1737 66.7432 53.6729C64.2147 55.3426 61.3044 56.1776 58.0127 56.1777C54.4346 56.1777 51.2612 55.3426 48.4941 53.6729C45.775 51.9554 43.628 49.6178 42.0537 46.6602C40.4793 43.6544 39.6924 40.219 39.6924 36.3545C39.6924 32.4424 40.5275 29.0077 42.1973 26.0498C43.9148 23.0443 46.2521 20.7059 49.21 19.0361C52.1679 17.3187 55.58 16.46 59.4443 16.46ZM126.043 0C127.092 0.000192343 127.927 0.334273 128.547 1.00195C129.215 1.62216 129.549 2.45735 129.549 3.50684V32.625L146.939 17.1035C147.655 16.4359 148.442 16.1262 149.301 16.1738C150.207 16.2216 150.971 16.6029 151.591 17.3184C152.258 18.0338 152.569 18.8212 152.521 19.6797C152.474 20.5384 152.091 21.3018 151.376 21.9697L138.241 33.6924L152.092 50.7393C152.712 51.5025 152.974 52.3378 152.879 53.2441C152.831 54.1027 152.402 54.8664 151.591 55.5342C150.828 56.1542 149.969 56.4166 149.015 56.3213C148.108 56.2736 147.345 55.8677 146.725 55.1045L133.111 38.2715L129.549 41.4512V52.3848C129.549 53.4342 129.215 54.293 128.547 54.9609C127.927 55.581 127.092 55.8914 126.043 55.8916C124.993 55.8916 124.134 55.581 123.466 54.9609C122.846 54.2931 122.536 53.4342 122.536 52.3848V3.50684C122.536 2.45738 122.846 1.62215 123.466 1.00195C124.134 0.334168 124.993 0 126.043 0ZM33.0625 16.6748C34.1595 16.6749 35.0422 17.0089 35.71 17.6768C36.3777 18.3447 36.7119 19.2271 36.7119 20.3242V52.2422C36.7119 53.2916 36.3777 54.1741 35.71 54.8896C35.0422 55.5574 34.1595 55.8915 33.0625 55.8916C32.013 55.8916 31.1297 55.5574 30.4141 54.8896C29.7464 54.1741 29.4122 53.2916 29.4121 52.2422V51.459C28.3588 52.5128 27.1429 53.4186 25.7627 54.1738C23.2819 55.5573 20.4425 56.2499 17.2461 56.25C13.9546 56.2499 10.9968 55.5571 8.37305 54.1738C5.79679 52.7426 3.74447 50.6676 2.21777 47.9482C0.738774 45.2288 0 41.8886 0 37.9287V20.3242C0 19.2748 0.333255 18.4159 1.00098 17.748C1.71658 17.0326 2.59991 16.6748 3.64941 16.6748C4.69878 16.6749 5.55777 17.0325 6.22559 17.748C6.94102 18.4159 7.29883 19.2748 7.29883 20.3242V37.9287C7.29883 40.6005 7.79986 42.8197 8.80176 44.585C9.80361 46.3022 11.1635 47.5905 12.8809 48.4492C14.5983 49.2602 16.531 49.666 18.6777 49.666C20.7291 49.666 22.5429 49.2602 24.1172 48.4492C25.739 47.6382 27.0274 46.5406 27.9814 45.1572C28.9355 43.7737 29.4121 42.2223 29.4121 40.5049V20.3242C29.4121 19.2271 29.7464 18.3446 30.4141 17.6768C31.1297 17.009 32.013 16.6748 33.0625 16.6748ZM201.406 16.6748C202.503 16.6749 203.387 17.0089 204.055 17.6768C204.722 18.3446 205.057 19.2272 205.057 20.3242V52.2422C205.057 53.2915 204.722 54.1741 204.055 54.8896C203.387 55.5575 202.503 55.8915 201.406 55.8916C200.357 55.8915 199.474 55.5574 198.759 54.8896C198.091 54.1741 197.757 53.2917 197.757 52.2422V51.459C196.704 52.5128 195.488 53.4185 194.107 54.1738C191.627 55.5573 188.787 56.2499 185.591 56.25C182.299 56.25 179.341 55.5573 176.717 54.1738C174.141 52.7426 172.089 50.6674 170.562 47.9482C169.083 45.2288 168.344 41.8886 168.344 37.9287V20.3242C168.344 19.2747 168.678 18.416 169.346 17.748C170.061 17.0327 170.944 16.6749 171.993 16.6748C173.043 16.6749 173.902 17.0325 174.57 17.748C175.286 18.4159 175.644 19.2749 175.644 20.3242V37.9287C175.644 40.6005 176.145 42.8197 177.146 44.585C178.148 46.3022 179.508 47.5905 181.226 48.4492C182.943 49.2601 184.876 49.666 187.022 49.666C189.074 49.6659 190.887 49.2601 192.461 48.4492C194.083 47.6382 195.371 46.5406 196.325 45.1572C197.279 43.7737 197.757 42.2223 197.757 40.5049V20.3242C197.757 19.227 198.091 18.3447 198.759 17.6768C199.474 17.0091 200.357 16.6749 201.406 16.6748ZM99.8643 16.46C103.681 16.4601 107.069 17.3187 110.026 19.0361C112.984 20.7059 115.298 23.0443 116.968 26.0498C118.685 29.0076 119.544 32.4426 119.544 36.3545C119.544 40.2189 118.709 43.6545 117.039 46.6602C115.369 49.6178 113.055 51.9554 110.098 53.6729C107.14 55.3426 103.728 56.1776 99.8643 56.1777C95.9999 56.1777 92.5878 55.3426 89.6299 53.6729C86.6722 51.9554 84.3346 49.6178 82.6172 46.6602C80.9473 43.6544 80.1123 40.219 80.1123 36.3545C80.1123 32.4424 80.9474 29.0077 82.6172 26.0498C84.3347 23.0443 86.6721 20.7059 89.6299 19.0361C92.5878 17.3187 95.9999 16.46 99.8643 16.46ZM159.773 16.7461C160.87 16.7462 161.753 17.0803 162.421 17.748C163.089 18.4159 163.423 19.2984 163.423 20.3955V52.2422C163.423 53.2916 163.089 54.1741 162.421 54.8896C161.753 55.5574 160.87 55.8915 159.773 55.8916C158.724 55.8916 157.842 55.5573 157.126 54.8896C156.458 54.1741 156.124 53.2917 156.124 52.2422V20.3955C156.124 19.2983 156.458 18.4159 157.126 17.748C157.842 17.0803 158.724 16.7461 159.773 16.7461ZM214.405 16.7461C215.502 16.7462 216.386 17.0802 217.054 17.748C217.721 18.4159 218.056 19.2985 218.056 20.3955V52.2422C218.056 53.2915 217.721 54.1741 217.054 54.8896C216.386 55.5575 215.502 55.8915 214.405 55.8916C213.356 55.8915 212.473 55.5574 211.758 54.8896C211.09 54.1741 210.756 53.2917 210.756 52.2422V20.3955C210.756 19.2983 211.09 18.4159 211.758 17.748C212.473 17.0803 213.356 16.7462 214.405 16.7461ZM59.4443 22.9004C56.9637 22.9004 54.7686 23.4734 52.8604 24.6182C50.952 25.7632 49.4489 27.3617 48.3516 29.4131C47.2543 31.4168 46.7051 33.7306 46.7051 36.3545C46.7051 38.9784 47.2544 41.2922 48.3516 43.2959C49.4489 45.2996 50.952 46.8745 52.8604 48.0195C54.7686 49.1643 56.9637 49.7373 59.4443 49.7373C61.9249 49.7372 64.1202 49.1644 66.0283 48.0195C67.9364 46.8745 69.4154 45.2994 70.4648 43.2959C71.562 41.2922 72.1104 38.9783 72.1104 36.3545C72.1103 33.7307 71.562 31.4168 70.4648 29.4131C69.4154 27.3618 67.9364 25.7632 66.0283 24.6182C64.1202 23.4733 61.9249 22.9005 59.4443 22.9004ZM99.8643 22.9004C97.3836 22.9004 95.1885 23.4733 93.2803 24.6182C91.3719 25.7632 89.8688 27.3617 88.7715 29.4131C87.6742 31.4168 87.125 33.7306 87.125 36.3545C87.125 38.9784 87.6743 41.2922 88.7715 43.2959C89.8688 45.2996 91.3719 46.8745 93.2803 48.0195C95.1885 49.1644 97.3836 49.7373 99.8643 49.7373C102.345 49.7372 104.54 49.1644 106.448 48.0195C108.356 46.8745 109.835 45.2995 110.885 43.2959C111.982 41.2922 112.531 38.9783 112.531 36.3545C112.531 33.7307 111.982 31.4168 110.885 29.4131C109.835 27.3618 108.356 25.7632 106.448 24.6182C104.54 23.4733 102.345 22.9005 99.8643 22.9004ZM106.344 2.93359C108.518 2.93359 110.28 4.6963 110.28 6.87012C110.28 9.04387 108.518 10.8057 106.344 10.8057H92.0312C89.8575 10.8057 88.0948 9.04387 88.0947 6.87012C88.0947 4.6963 89.8574 2.93359 92.0312 2.93359H106.344ZM159.773 0.930664C161.061 0.930777 162.159 1.40729 163.065 2.36133C164.019 3.26774 164.497 4.36532 164.497 5.65332C164.497 6.94129 164.019 8.0625 163.065 9.0166C162.159 9.92298 161.061 10.3768 159.773 10.377C158.485 10.377 157.364 9.92294 156.41 9.0166C155.504 8.06242 155.05 6.94145 155.05 5.65332C155.05 4.36522 155.504 3.26778 156.41 2.36133C157.364 1.40743 158.485 0.930664 159.773 0.930664ZM214.405 0.930664C215.693 0.930775 216.791 1.40742 217.697 2.36133C218.651 3.26774 219.129 4.36532 219.129 5.65332C219.129 6.94137 218.651 8.06246 217.697 9.0166C216.791 9.92298 215.693 10.3768 214.405 10.377C213.117 10.3769 211.996 9.92284 211.042 9.0166C210.136 8.06247 209.683 6.94136 209.683 5.65332C209.683 4.36522 210.136 3.26778 211.042 2.36133C211.996 1.40739 213.117 0.93076 214.405 0.930664Z" fill="url(#paint0_linear_54_417)"/>
<defs>
<linearGradient id="paint0_linear_54_417" x1="28.9648" y1="2.92342" x2="74.8329" y2="104.1" gradientUnits="userSpaceOnUse">
<stop stop-color="white"/>
<stop offset="0.192308" stop-color="#D7D3FF"/>
<stop offset="0.480769" stop-color="#7BA7FF"/>
<stop offset="1" stop-color="#414AFF"/>
</linearGradient>
</defs>
</svg>
