<svg width="128" height="43" viewBox="0 0 128 43" fill="none" xmlns="http://www.w3.org/2000/svg">
<path d="M34.7236 9.61523C36.953 9.61525 38.9314 10.1169 40.6592 11.1201C42.387 12.0955 43.7394 13.4611 44.7148 15.2168C45.6554 16.8367 46.1552 18.7017 46.2139 20.8115L46.2197 21.2363V30.2656C46.2197 32.4672 45.7312 34.4596 44.7559 36.2432C43.7805 38.0546 42.4149 39.4898 40.6592 40.5488C38.9313 41.6078 36.9248 42.1377 34.6396 42.1377C32.6611 42.1377 30.8079 41.7471 29.0801 40.9668C27.3523 40.1865 25.8887 39.0439 24.6904 37.5391C24.3284 37.0654 24.1889 36.5777 24.2725 36.0762C24.3839 35.5747 24.6628 35.1708 25.1084 34.8643C25.6099 34.5299 26.1259 34.4179 26.6553 34.5293C27.2125 34.6407 27.6588 34.9195 27.9932 35.3652C28.7456 36.3128 29.6933 37.0516 30.8359 37.5811C31.9785 38.1105 33.2745 38.375 34.7236 38.375C36.0613 38.375 37.2876 38.055 38.4023 37.4141C39.5449 36.7731 40.4503 35.8253 41.1191 34.5713C41.788 33.3172 42.123 31.7841 42.123 29.9727V27.8965C41.3221 29.3246 40.2768 30.4767 38.9873 31.3525C37.5103 32.3279 35.8105 32.8154 33.8877 32.8154C31.7977 32.8154 29.9444 32.3278 28.3281 31.3525C26.7396 30.3493 25.4851 28.9837 24.5654 27.2559C23.6458 25.5002 23.1856 23.4937 23.1855 21.2363C23.1855 18.9511 23.674 16.9446 24.6494 15.2168C25.6527 13.4611 27.0183 12.0955 28.7461 11.1201C30.4739 10.1169 32.4664 9.61523 34.7236 9.61523ZM73.626 0C74.2389 6.9591e-05 74.7266 0.195847 75.0889 0.585938C75.4789 0.948209 75.6738 1.43583 75.6738 2.04883V19.0576L85.832 9.99121C86.2501 9.60106 86.7103 9.42037 87.2119 9.44824C87.7411 9.47618 88.1867 9.69859 88.5488 10.1162C88.939 10.5342 89.1206 10.9945 89.0928 11.4961C89.0649 11.9977 88.8419 12.4438 88.4238 12.834L80.751 19.6816L88.8418 29.6387C89.204 30.0845 89.3574 30.5721 89.3018 31.1016C89.2739 31.6032 89.0226 32.0493 88.5488 32.4395C88.103 32.8016 87.6012 32.9551 87.0439 32.8994C86.5147 32.8714 86.0692 32.6342 85.707 32.1885L77.7539 22.3564L75.6738 24.2139V30.6006C75.6737 31.2135 75.4789 31.7154 75.0889 32.1055C74.7267 32.4676 74.2388 32.6484 73.626 32.6484C73.0131 32.6484 72.5112 32.4675 72.1211 32.1055C71.7589 31.7154 71.5772 31.2135 71.5771 30.6006V2.04883C71.5771 1.43572 71.7588 0.948229 72.1211 0.585938C72.5113 0.195796 73.0129 0 73.626 0ZM19.3135 9.74023C19.9544 9.74028 20.4702 9.93606 20.8604 10.3262C21.2502 10.7162 21.4452 11.2315 21.4453 11.8721V30.5166C21.4453 31.1296 21.2505 31.6455 20.8604 32.0635C20.4702 32.4536 19.9544 32.6484 19.3135 32.6484C18.7004 32.6484 18.1846 32.4535 17.7666 32.0635C17.3765 31.6455 17.1817 31.1297 17.1816 30.5166V30.0586C16.5662 30.6744 15.8563 31.2042 15.0498 31.6455C13.6007 32.4536 11.9422 32.8574 10.0752 32.8574C8.15243 32.8574 6.42427 32.4536 4.8916 31.6455C3.38677 30.8095 2.18768 29.5972 1.2959 28.0088C0.432014 26.4204 4.14185e-05 24.4692 0 22.1562V11.8721C7.23677e-05 11.2591 0.19585 10.7573 0.585938 10.3672C1.00381 9.94949 1.51909 9.74033 2.13184 9.74023C2.74475 9.74023 3.24661 9.94943 3.63672 10.3672C4.05467 10.7573 4.26457 11.2591 4.26465 11.8721V22.1562C4.26469 23.7167 4.5564 25.0129 5.1416 26.0439C5.72676 27.047 6.52136 27.7992 7.52441 28.3008C8.52768 28.7745 9.65705 29.0117 10.9111 29.0117C12.1094 29.0117 13.1683 28.7745 14.0879 28.3008C15.0354 27.827 15.7883 27.1861 16.3457 26.3779C16.8333 25.6708 17.107 24.8887 17.168 24.0322L17.1816 23.6611V11.8721C17.1817 11.2314 17.3766 10.7162 17.7666 10.3262C18.1846 9.93601 18.7004 9.74023 19.3135 9.74023ZM117.648 9.74023C118.289 9.74032 118.804 9.9361 119.194 10.3262C119.584 10.7163 119.78 11.2313 119.78 11.8721V30.5166C119.78 31.1297 119.584 31.6455 119.194 32.0635C118.804 32.4533 118.289 32.6483 117.648 32.6484C117.035 32.6484 116.52 32.4535 116.102 32.0635C115.711 31.6455 115.516 31.1297 115.516 30.5166V30.0596C114.9 30.6751 114.19 31.2044 113.384 31.6455C111.935 32.4536 110.276 32.8574 108.409 32.8574C106.486 32.8574 104.758 32.4536 103.226 31.6455C101.721 30.8095 100.523 29.5971 99.6309 28.0088C98.767 26.4204 98.335 24.4692 98.335 22.1562V11.8721C98.335 11.2591 98.5299 10.7573 98.9199 10.3672C99.3379 9.94921 99.8538 9.74028 100.467 9.74023C101.08 9.74023 101.582 9.94935 101.972 10.3672C102.39 10.7573 102.599 11.2591 102.599 11.8721V22.1562C102.599 23.7167 102.891 25.0129 103.477 26.0439C104.062 27.0471 104.856 27.7992 105.859 28.3008C106.863 28.7745 107.992 29.0117 109.246 29.0117C110.444 29.0117 111.503 28.7745 112.423 28.3008C113.37 27.827 114.122 27.186 114.68 26.3779C115.167 25.6707 115.442 24.8888 115.503 24.0322L115.516 23.6611V11.8721C115.516 11.2313 115.712 10.7163 116.102 10.3262C116.52 9.93601 117.035 9.74023 117.648 9.74023ZM58.334 9.61523C60.5634 9.61524 62.5417 10.117 64.2695 11.1201C65.9974 12.0955 67.3498 13.4611 68.3252 15.2168C69.3284 16.9446 69.8301 18.9512 69.8301 21.2363C69.8301 23.4937 69.3416 25.5002 68.3662 27.2559C67.3908 28.9836 66.0393 30.3493 64.3115 31.3525C62.5837 32.3279 60.5913 32.8154 58.334 32.8154C56.0767 32.8154 54.0842 32.3279 52.3564 31.3525C50.6286 30.3493 49.263 28.9837 48.2598 27.2559C47.2844 25.5002 46.7959 23.4937 46.7959 21.2363C46.7959 18.9511 47.2844 16.9446 48.2598 15.2168C49.263 13.4611 50.6286 12.0955 52.3564 11.1201C54.0843 10.1169 56.0767 9.61523 58.334 9.61523ZM93.3291 9.78223C93.97 9.78228 94.4859 9.97708 94.876 10.3672C95.2661 10.7573 95.4609 11.2732 95.4609 11.9141V30.5166C95.4609 31.1296 95.2661 31.6455 94.876 32.0635C94.4859 32.4536 93.97 32.6484 93.3291 32.6484C92.7161 32.6484 92.2002 32.4535 91.7822 32.0635C91.3921 31.6455 91.1973 31.1297 91.1973 30.5166V11.9141C91.1973 11.2732 91.3921 10.7573 91.7822 10.3672C92.2002 9.97716 92.7161 9.78223 93.3291 9.78223ZM125.241 9.78223C125.882 9.78225 126.398 9.97706 126.788 10.3672C127.178 10.7573 127.373 11.2732 127.373 11.9141V30.5166C127.373 31.1297 127.178 31.6455 126.788 32.0635C126.398 32.4536 125.882 32.6484 125.241 32.6484C124.628 32.6484 124.112 32.4536 123.694 32.0635C123.304 31.6455 123.109 31.1297 123.109 30.5166V11.9141C123.109 11.2732 123.304 10.7573 123.694 10.3672C124.112 9.97711 124.628 9.78223 125.241 9.78223ZM34.7236 13.377C33.2745 13.377 31.9927 13.7121 30.8779 14.3809C29.7632 15.0497 28.8851 15.9833 28.2441 17.1816C27.6032 18.3521 27.2822 19.7036 27.2822 21.2363C27.2822 22.769 27.6032 24.1206 28.2441 25.291C28.8851 26.4615 29.7632 27.381 30.8779 28.0498C31.9927 28.7186 33.2745 29.0537 34.7236 29.0537C36.1727 29.0537 37.4546 28.7186 38.5693 28.0498C39.684 27.381 40.548 26.4615 41.1611 25.291C41.8021 24.1206 42.123 22.769 42.123 21.2363C42.123 19.7036 41.802 18.3521 41.1611 17.1816C40.548 15.9833 39.684 15.0497 38.5693 14.3809C37.4546 13.712 36.1727 13.377 34.7236 13.377ZM58.334 13.377C56.8848 13.377 55.603 13.712 54.4883 14.3809C53.3735 15.0497 52.4955 15.9833 51.8545 17.1816C51.2136 18.3521 50.8926 19.7036 50.8926 21.2363C50.8926 22.769 51.2136 24.1206 51.8545 25.291C52.4955 26.4615 53.3735 27.381 54.4883 28.0498C55.603 28.7187 56.8848 29.0537 58.334 29.0537C59.7831 29.0537 61.0649 28.7186 62.1797 28.0498C63.2944 27.381 64.1584 26.4615 64.7715 25.291C65.4124 24.1206 65.7334 22.7691 65.7334 21.2363C65.7334 19.7036 65.4124 18.3521 64.7715 17.1816C64.1584 15.9833 63.2944 15.0497 62.1797 14.3809C61.0649 13.712 59.7831 13.377 58.334 13.377ZM93.3291 0.543945C94.0814 0.544009 94.7225 0.822575 95.252 1.37988C95.8092 1.90935 96.0879 2.55036 96.0879 3.30273C96.0879 4.05515 95.8093 4.71022 95.252 5.26758C94.7225 5.79702 94.0814 6.06146 93.3291 6.06152C92.5767 6.06152 91.9216 5.79702 91.3643 5.26758C90.8348 4.71021 90.5703 4.05519 90.5703 3.30273C90.5703 2.55032 90.8348 1.90937 91.3643 1.37988C91.9216 0.822564 92.5767 0.543945 93.3291 0.543945ZM125.241 0.543945C125.994 0.543974 126.635 0.82254 127.164 1.37988C127.721 1.90936 128 2.55033 128 3.30273C128 4.05518 127.721 4.71021 127.164 5.26758C126.635 5.79705 125.994 6.0615 125.241 6.06152C124.489 6.06152 123.834 5.79707 123.276 5.26758C122.747 4.71021 122.482 4.05519 122.482 3.30273C122.482 2.55032 122.747 1.90937 123.276 1.37988C123.834 0.822517 124.489 0.543945 125.241 0.543945Z" fill="black"/>
<rect x="51.4595" y="1.71456" width="12.9589" height="4.59832" rx="2.29916" fill="#424BFF"/>
<rect x="51.4595" y="1.71456" width="12.9589" height="4.59832" rx="2.29916" fill="url(#paint0_linear_10_156)"/>
<defs>
<linearGradient id="paint0_linear_10_156" x1="53.1724" y1="1.90091" x2="56.2394" y2="8.17718" gradientUnits="userSpaceOnUse">
<stop stop-color="white"/>
<stop offset="0.192308" stop-color="#D7D3FF"/>
<stop offset="0.480769" stop-color="#7BA7FF"/>
<stop offset="1" stop-color="#414AFF"/>
</linearGradient>
</defs>
</svg>
